<svg width="25" height="25" viewBox="0 0 25 25" fill="none" xmlns="http://www.w3.org/2000/svg">
<path d="M4.9751 22.25C4.37836 22.25 3.80606 22.0129 3.38411 21.591C2.96215 21.169 2.7251 20.5967 2.7251 20V5C2.7251 4.40326 2.96215 3.83097 3.38411 3.40901C3.80606 2.98705 4.37836 2.75 4.9751 2.75H16.9751C17.174 2.75 17.3648 2.82902 17.5054 2.96967C17.6461 3.11032 17.7251 3.30109 17.7251 3.5C17.7251 3.69891 17.6461 3.88968 17.5054 4.03033C17.3648 4.17098 17.174 4.25 16.9751 4.25H4.9751C4.77619 4.25 4.58542 4.32902 4.44477 4.46967C4.30412 4.61032 4.2251 4.80109 4.2251 5V20C4.2251 20.1989 4.30412 20.3897 4.44477 20.5303C4.58542 20.671 4.77619 20.75 4.9751 20.75H19.9751C20.174 20.75 20.3648 20.671 20.5054 20.5303C20.6461 20.3897 20.7251 20.1989 20.7251 20V12.5C20.7251 12.3011 20.8041 12.1103 20.9448 11.9697C21.0854 11.829 21.2762 11.75 21.4751 11.75C21.674 11.75 21.8648 11.829 22.0054 11.9697C22.1461 12.1103 22.2251 12.3011 22.2251 12.5V20C22.2251 20.5967 21.988 21.169 21.5661 21.591C21.1441 22.0129 20.5718 22.25 19.9751 22.25H4.9751Z" fill="#201E1E"/>
<path d="M13.0061 16.031L23.5061 5.531C23.5758 5.46127 23.6311 5.37848 23.6689 5.28737C23.7066 5.19627 23.726 5.09862 23.726 5C23.726 4.90138 23.7066 4.80373 23.6689 4.71262C23.6311 4.62152 23.5758 4.53873 23.5061 4.469C23.4364 4.39927 23.3536 4.34395 23.2625 4.30622C23.1714 4.26848 23.0737 4.24905 22.9751 4.24905C22.8765 4.24905 22.7788 4.26848 22.6877 4.30622C22.5966 4.34395 22.5138 4.39927 22.4441 4.469L12.4751 14.4395L8.5061 10.469C8.43637 10.3993 8.35358 10.344 8.26247 10.3062C8.17136 10.2685 8.07371 10.2491 7.9751 10.2491C7.87648 10.2491 7.77883 10.2685 7.68772 10.3062C7.59661 10.344 7.51383 10.3993 7.4441 10.469C7.37437 10.5387 7.31905 10.6215 7.28131 10.7126C7.24357 10.8037 7.22415 10.9014 7.22415 11C7.22415 11.0986 7.24357 11.1963 7.28131 11.2874C7.31905 11.3785 7.37437 11.4613 7.4441 11.531L11.9441 16.031C12.0138 16.1008 12.0965 16.1563 12.1876 16.1941C12.2788 16.2319 12.3764 16.2513 12.4751 16.2513C12.5737 16.2513 12.6714 16.2319 12.7625 16.1941C12.8537 16.1563 12.9364 16.1008 13.0061 16.031Z" fill="#201E1E"/>
</svg>
